<mxfile host="app.diagrams.net" modified="2021-07-31T15:04:32.427Z" agent="5.0 (Windows NT 10.0; Win64; x64) AppleWebKit/537.36 (KHTML, like Gecko) Chrome/92.0.4515.107 Safari/537.36 Edg/92.0.902.55" etag="4oJJFlLKqatnlBHZqGdq" version="14.9.3" type="github">
  <diagram id="JXoLLKLvHg6pEKs84WBC" name="Page-1">
    <mxGraphModel dx="1902" dy="1085" grid="1" gridSize="10" guides="1" tooltips="1" connect="1" arrows="1" fold="1" page="1" pageScale="1" pageWidth="850" pageHeight="1100" math="0" shadow="0">
      <root>
        <mxCell id="0" />
        <mxCell id="1" parent="0" />
        <mxCell id="VBvuwkP320cd5Lrn6C0n-1" value="&lt;b&gt;&lt;font style=&quot;font-size: 30px&quot;&gt;Client &lt;br&gt;Browser&lt;/font&gt;&lt;/b&gt;" style="text;html=1;strokeColor=#d6b656;fillColor=#fff2cc;align=center;verticalAlign=middle;whiteSpace=wrap;rounded=1;glass=0;" vertex="1" parent="1">
          <mxGeometry x="430" y="305" width="260" height="110" as="geometry" />
        </mxCell>
        <mxCell id="VBvuwkP320cd5Lrn6C0n-15" style="edgeStyle=orthogonalEdgeStyle;rounded=0;orthogonalLoop=1;jettySize=auto;html=1;exitX=0;exitY=0.3333333333333333;exitDx=0;exitDy=0;exitPerimeter=0;entryX=0;entryY=0.5;entryDx=0;entryDy=0;" edge="1" parent="1" source="VBvuwkP320cd5Lrn6C0n-2" target="VBvuwkP320cd5Lrn6C0n-11">
          <mxGeometry relative="1" as="geometry" />
        </mxCell>
        <mxCell id="VBvuwkP320cd5Lrn6C0n-2" value="User&lt;br&gt;" style="shape=umlActor;verticalLabelPosition=bottom;verticalAlign=top;html=1;outlineConnect=0;rounded=1;glass=0;" vertex="1" parent="1">
          <mxGeometry x="100" y="200" width="30" height="60" as="geometry" />
        </mxCell>
        <mxCell id="VBvuwkP320cd5Lrn6C0n-11" value="Actions" style="rounded=1;whiteSpace=wrap;html=1;glass=0;fillColor=#dae8fc;strokeColor=#6c8ebf;" vertex="1" parent="1">
          <mxGeometry x="160" y="330" width="120" height="60" as="geometry" />
        </mxCell>
        <mxCell id="VBvuwkP320cd5Lrn6C0n-13" style="edgeStyle=orthogonalEdgeStyle;rounded=0;orthogonalLoop=1;jettySize=auto;html=1;exitX=0;exitY=0.5;exitDx=0;exitDy=0;entryX=0.75;entryY=0.1;entryDx=0;entryDy=0;entryPerimeter=0;" edge="1" parent="1" source="VBvuwkP320cd5Lrn6C0n-12" target="VBvuwkP320cd5Lrn6C0n-2">
          <mxGeometry relative="1" as="geometry" />
        </mxCell>
        <mxCell id="VBvuwkP320cd5Lrn6C0n-12" value="Visual UIs" style="rounded=1;whiteSpace=wrap;html=1;glass=0;fillColor=#d5e8d4;strokeColor=#82b366;" vertex="1" parent="1">
          <mxGeometry x="280" y="110" width="120" height="60" as="geometry" />
        </mxCell>
        <mxCell id="VBvuwkP320cd5Lrn6C0n-17" value="Browser Storages" style="shape=cylinder3;whiteSpace=wrap;html=1;boundedLbl=1;backgroundOutline=1;size=15;rounded=1;glass=0;" vertex="1" parent="1">
          <mxGeometry x="290" y="190" width="80" height="100" as="geometry" />
        </mxCell>
        <mxCell id="VBvuwkP320cd5Lrn6C0n-18" value="" style="shape=flexArrow;endArrow=classic;html=1;entryX=1;entryY=0.5;entryDx=0;entryDy=0;exitX=0.5;exitY=0;exitDx=0;exitDy=0;fillColor=#d5e8d4;strokeColor=#82b366;" edge="1" parent="1" source="VBvuwkP320cd5Lrn6C0n-1" target="VBvuwkP320cd5Lrn6C0n-12">
          <mxGeometry width="50" height="50" relative="1" as="geometry">
            <mxPoint x="440" y="500" as="sourcePoint" />
            <mxPoint x="490" y="450" as="targetPoint" />
            <Array as="points">
              <mxPoint x="560" y="140" />
            </Array>
          </mxGeometry>
        </mxCell>
        <mxCell id="VBvuwkP320cd5Lrn6C0n-19" value="&lt;font style=&quot;font-size: 15px&quot;&gt;Features&lt;/font&gt;" style="shape=flexArrow;endArrow=classic;html=1;exitX=1;exitY=0.5;exitDx=0;exitDy=0;entryX=0;entryY=0.5;entryDx=0;entryDy=0;fillColor=#dae8fc;strokeColor=#6c8ebf;" edge="1" parent="1" source="VBvuwkP320cd5Lrn6C0n-11" target="VBvuwkP320cd5Lrn6C0n-1">
          <mxGeometry width="50" height="50" relative="1" as="geometry">
            <mxPoint x="440" y="500" as="sourcePoint" />
            <mxPoint x="490" y="450" as="targetPoint" />
          </mxGeometry>
        </mxCell>
        <mxCell id="VBvuwkP320cd5Lrn6C0n-21" value="" style="endArrow=none;dashed=1;html=1;dashPattern=1 3;strokeWidth=2;entryX=1;entryY=0.5;entryDx=0;entryDy=0;entryPerimeter=0;" edge="1" parent="1" target="VBvuwkP320cd5Lrn6C0n-17">
          <mxGeometry width="50" height="50" relative="1" as="geometry">
            <mxPoint x="560" y="240" as="sourcePoint" />
            <mxPoint x="490" y="450" as="targetPoint" />
          </mxGeometry>
        </mxCell>
        <mxCell id="VBvuwkP320cd5Lrn6C0n-23" value="" style="endArrow=none;dashed=1;html=1;dashPattern=1 3;strokeWidth=2;exitX=0.5;exitY=1;exitDx=0;exitDy=0;exitPerimeter=0;" edge="1" parent="1" source="VBvuwkP320cd5Lrn6C0n-17">
          <mxGeometry width="50" height="50" relative="1" as="geometry">
            <mxPoint x="440" y="500" as="sourcePoint" />
            <mxPoint x="330" y="350" as="targetPoint" />
          </mxGeometry>
        </mxCell>
        <mxCell id="VBvuwkP320cd5Lrn6C0n-25" value="" style="shape=flexArrow;endArrow=classic;html=1;fillColor=#dae8fc;strokeColor=#6c8ebf;entryX=0.094;entryY=-0.035;entryDx=0;entryDy=0;entryPerimeter=0;" edge="1" parent="1" source="VBvuwkP320cd5Lrn6C0n-1">
          <mxGeometry width="50" height="50" relative="1" as="geometry">
            <mxPoint x="511" y="420" as="sourcePoint" />
            <mxPoint x="354.7800000000002" y="547.9000000000001" as="targetPoint" />
          </mxGeometry>
        </mxCell>
        <mxCell id="VBvuwkP320cd5Lrn6C0n-27" value="Request" style="edgeLabel;html=1;align=center;verticalAlign=middle;resizable=0;points=[];fontSize=16;" vertex="1" connectable="0" parent="VBvuwkP320cd5Lrn6C0n-25">
          <mxGeometry x="0.4057" relative="1" as="geometry">
            <mxPoint as="offset" />
          </mxGeometry>
        </mxCell>
        <mxCell id="VBvuwkP320cd5Lrn6C0n-26" value="" style="shape=flexArrow;endArrow=classic;html=1;fillColor=#d5e8d4;strokeColor=#82b366;exitX=1;exitY=0;exitDx=0;exitDy=0;" edge="1" parent="1" target="VBvuwkP320cd5Lrn6C0n-1">
          <mxGeometry width="50" height="50" relative="1" as="geometry">
            <mxPoint x="690" y="550" as="sourcePoint" />
            <mxPoint x="570" y="500" as="targetPoint" />
            <Array as="points" />
          </mxGeometry>
        </mxCell>
        <mxCell id="VBvuwkP320cd5Lrn6C0n-29" value="Response" style="edgeLabel;html=1;align=center;verticalAlign=middle;resizable=0;points=[];fontSize=16;" vertex="1" connectable="0" parent="VBvuwkP320cd5Lrn6C0n-26">
          <mxGeometry x="-0.1987" y="4" relative="1" as="geometry">
            <mxPoint as="offset" />
          </mxGeometry>
        </mxCell>
        <mxCell id="VBvuwkP320cd5Lrn6C0n-33" value="Back-End Production (Heroku)" style="shape=process;whiteSpace=wrap;html=1;backgroundOutline=1;rounded=1;glass=0;fontSize=16;fillColor=#f8cecc;strokeColor=#b85450;" vertex="1" parent="1">
          <mxGeometry x="1540" y="1520" width="370" height="60" as="geometry" />
        </mxCell>
        <mxCell id="VBvuwkP320cd5Lrn6C0n-44" style="edgeStyle=orthogonalEdgeStyle;rounded=0;orthogonalLoop=1;jettySize=auto;html=1;exitX=1;exitY=0.5;exitDx=0;exitDy=0;entryX=0;entryY=0.5;entryDx=0;entryDy=0;fontSize=16;" edge="1" parent="1" source="VBvuwkP320cd5Lrn6C0n-36" target="VBvuwkP320cd5Lrn6C0n-43">
          <mxGeometry relative="1" as="geometry">
            <Array as="points">
              <mxPoint x="260" y="760" />
              <mxPoint x="260" y="1010" />
            </Array>
          </mxGeometry>
        </mxCell>
        <mxCell id="VBvuwkP320cd5Lrn6C0n-50" value="/path 1" style="edgeLabel;html=1;align=center;verticalAlign=middle;resizable=0;points=[];fontSize=16;" vertex="1" connectable="0" parent="VBvuwkP320cd5Lrn6C0n-44">
          <mxGeometry x="-0.3702" y="-1" relative="1" as="geometry">
            <mxPoint as="offset" />
          </mxGeometry>
        </mxCell>
        <mxCell id="VBvuwkP320cd5Lrn6C0n-36" value="/path" style="triangle;whiteSpace=wrap;html=1;rounded=1;glass=0;fontSize=16;fillColor=#dae8fc;strokeColor=#6c8ebf;" vertex="1" parent="1">
          <mxGeometry x="160" y="720" width="60" height="80" as="geometry" />
        </mxCell>
        <mxCell id="VBvuwkP320cd5Lrn6C0n-40" value="" style="endArrow=none;dashed=1;html=1;dashPattern=1 3;strokeWidth=2;fontSize=16;entryX=0;entryY=0.5;entryDx=0;entryDy=0;exitX=0;exitY=0.5;exitDx=0;exitDy=0;fillColor=#dae8fc;strokeColor=#6c8ebf;" edge="1" parent="1" source="VBvuwkP320cd5Lrn6C0n-36">
          <mxGeometry width="50" height="50" relative="1" as="geometry">
            <mxPoint x="600" y="830" as="sourcePoint" />
            <mxPoint x="320" y="580" as="targetPoint" />
            <Array as="points">
              <mxPoint x="120" y="740" />
            </Array>
          </mxGeometry>
        </mxCell>
        <mxCell id="VBvuwkP320cd5Lrn6C0n-41" value="" style="endArrow=none;dashed=1;html=1;dashPattern=1 3;strokeWidth=2;fontSize=16;exitX=0;exitY=0.5;exitDx=0;exitDy=0;fillColor=#dae8fc;strokeColor=#6c8ebf;" edge="1" parent="1" source="VBvuwkP320cd5Lrn6C0n-122">
          <mxGeometry width="50" height="50" relative="1" as="geometry">
            <mxPoint x="70" y="890" as="sourcePoint" />
            <mxPoint x="360" y="550" as="targetPoint" />
            <Array as="points">
              <mxPoint x="20" y="830" />
              <mxPoint x="180" y="690" />
            </Array>
          </mxGeometry>
        </mxCell>
        <mxCell id="VBvuwkP320cd5Lrn6C0n-43" value="Router" style="ellipse;whiteSpace=wrap;html=1;rounded=1;glass=0;fontSize=16;" vertex="1" parent="1">
          <mxGeometry x="290" y="950" width="145" height="120" as="geometry" />
        </mxCell>
        <mxCell id="VBvuwkP320cd5Lrn6C0n-68" value="Component.js" style="swimlane;rounded=1;glass=0;fontSize=16;" vertex="1" parent="1">
          <mxGeometry x="650" y="1020" width="610" height="390" as="geometry" />
        </mxCell>
        <mxCell id="VBvuwkP320cd5Lrn6C0n-70" value="Render&lt;br&gt;useSelector().Map" style="rounded=1;whiteSpace=wrap;html=1;glass=0;fontSize=16;fillColor=#d5e8d4;strokeColor=#82b366;" vertex="1" parent="VBvuwkP320cd5Lrn6C0n-68">
          <mxGeometry x="50" y="290" width="330" height="50" as="geometry" />
        </mxCell>
        <mxCell id="VBvuwkP320cd5Lrn6C0n-95" value="handleEventFunctions" style="shape=hexagon;perimeter=hexagonPerimeter2;whiteSpace=wrap;html=1;fixedSize=1;rounded=1;glass=0;fontSize=16;" vertex="1" parent="VBvuwkP320cd5Lrn6C0n-68">
          <mxGeometry x="50" y="70" width="230" height="80" as="geometry" />
        </mxCell>
        <mxCell id="VBvuwkP320cd5Lrn6C0n-105" value="useEffect" style="shape=hexagon;perimeter=hexagonPerimeter2;whiteSpace=wrap;html=1;fixedSize=1;rounded=1;glass=0;fontSize=16;" vertex="1" parent="VBvuwkP320cd5Lrn6C0n-68">
          <mxGeometry x="50" y="170" width="230" height="80" as="geometry" />
        </mxCell>
        <mxCell id="VBvuwkP320cd5Lrn6C0n-107" value="Component states and life cycle" style="shape=cylinder3;whiteSpace=wrap;html=1;boundedLbl=1;backgroundOutline=1;size=15;rounded=1;glass=0;fontSize=16;" vertex="1" parent="VBvuwkP320cd5Lrn6C0n-68">
          <mxGeometry x="440" y="60" width="120" height="150" as="geometry" />
        </mxCell>
        <mxCell id="VBvuwkP320cd5Lrn6C0n-108" value="" style="endArrow=none;dashed=1;html=1;dashPattern=1 3;strokeWidth=2;fontSize=16;entryX=0;entryY=0;entryDx=0;entryDy=45;entryPerimeter=0;exitX=1;exitY=0.5;exitDx=0;exitDy=0;" edge="1" parent="VBvuwkP320cd5Lrn6C0n-68" source="VBvuwkP320cd5Lrn6C0n-95" target="VBvuwkP320cd5Lrn6C0n-107">
          <mxGeometry width="50" height="50" relative="1" as="geometry">
            <mxPoint x="90" as="sourcePoint" />
            <mxPoint x="140" y="-50" as="targetPoint" />
          </mxGeometry>
        </mxCell>
        <mxCell id="VBvuwkP320cd5Lrn6C0n-109" value="" style="endArrow=none;dashed=1;html=1;dashPattern=1 3;strokeWidth=2;fontSize=16;entryX=0;entryY=0;entryDx=0;entryDy=105;entryPerimeter=0;exitX=1;exitY=0.5;exitDx=0;exitDy=0;" edge="1" parent="VBvuwkP320cd5Lrn6C0n-68" source="VBvuwkP320cd5Lrn6C0n-105" target="VBvuwkP320cd5Lrn6C0n-107">
          <mxGeometry width="50" height="50" relative="1" as="geometry">
            <mxPoint x="90" as="sourcePoint" />
            <mxPoint x="140" y="-50" as="targetPoint" />
          </mxGeometry>
        </mxCell>
        <mxCell id="VBvuwkP320cd5Lrn6C0n-71" style="edgeStyle=orthogonalEdgeStyle;rounded=0;orthogonalLoop=1;jettySize=auto;html=1;exitX=1;exitY=0.5;exitDx=0;exitDy=0;entryX=0.75;entryY=1;entryDx=0;entryDy=0;fontSize=16;fillColor=#d5e8d4;strokeColor=#82b366;" edge="1" parent="1" source="VBvuwkP320cd5Lrn6C0n-70">
          <mxGeometry relative="1" as="geometry">
            <mxPoint x="597.5" y="610" as="targetPoint" />
            <Array as="points">
              <mxPoint x="1390" y="1335" />
              <mxPoint x="1390" y="910" />
              <mxPoint x="638" y="910" />
            </Array>
          </mxGeometry>
        </mxCell>
        <mxCell id="VBvuwkP320cd5Lrn6C0n-72" value="Redux Store" style="swimlane;rounded=1;glass=0;fontSize=16;arcSize=0;" vertex="1" parent="1">
          <mxGeometry x="930" y="1830" width="420" height="350" as="geometry" />
        </mxCell>
        <mxCell id="VBvuwkP320cd5Lrn6C0n-74" value="Reducer" style="ellipse;whiteSpace=wrap;html=1;rounded=1;glass=0;fontSize=16;" vertex="1" parent="VBvuwkP320cd5Lrn6C0n-72">
          <mxGeometry x="150" y="230" width="120" height="80" as="geometry" />
        </mxCell>
        <mxCell id="VBvuwkP320cd5Lrn6C0n-118" style="edgeStyle=orthogonalEdgeStyle;rounded=0;orthogonalLoop=1;jettySize=auto;html=1;exitX=0.5;exitY=1;exitDx=0;exitDy=0;fontSize=16;strokeWidth=5;" edge="1" parent="VBvuwkP320cd5Lrn6C0n-72" source="VBvuwkP320cd5Lrn6C0n-114" target="VBvuwkP320cd5Lrn6C0n-74">
          <mxGeometry relative="1" as="geometry" />
        </mxCell>
        <mxCell id="VBvuwkP320cd5Lrn6C0n-114" value="Actions" style="ellipse;whiteSpace=wrap;html=1;rounded=1;glass=0;fontSize=16;" vertex="1" parent="VBvuwkP320cd5Lrn6C0n-72">
          <mxGeometry x="150" y="70" width="120" height="80" as="geometry" />
        </mxCell>
        <mxCell id="VBvuwkP320cd5Lrn6C0n-113" style="edgeStyle=orthogonalEdgeStyle;rounded=0;orthogonalLoop=1;jettySize=auto;html=1;exitX=1;exitY=0;exitDx=0;exitDy=15;exitPerimeter=0;fontSize=16;strokeWidth=5;fillColor=#d5e8d4;strokeColor=#82b366;" edge="1" parent="1" source="VBvuwkP320cd5Lrn6C0n-97" target="VBvuwkP320cd5Lrn6C0n-70">
          <mxGeometry relative="1" as="geometry" />
        </mxCell>
        <mxCell id="VBvuwkP320cd5Lrn6C0n-97" value="Redux State" style="shape=cylinder3;whiteSpace=wrap;html=1;boundedLbl=1;backgroundOutline=1;size=15;rounded=1;glass=0;fontSize=16;" vertex="1" parent="1">
          <mxGeometry x="240" y="1460" width="160" height="80" as="geometry" />
        </mxCell>
        <mxCell id="VBvuwkP320cd5Lrn6C0n-101" value="state validation (e,g login,redirect)" style="shape=flexArrow;endArrow=classic;startArrow=classic;html=1;fontSize=16;exitX=0.409;exitY=-0.011;exitDx=0;exitDy=0;exitPerimeter=0;entryX=0;entryY=1;entryDx=0;entryDy=0;fillColor=#f8cecc;strokeColor=#b85450;" edge="1" parent="1" source="VBvuwkP320cd5Lrn6C0n-97" target="VBvuwkP320cd5Lrn6C0n-43">
          <mxGeometry width="100" height="100" relative="1" as="geometry">
            <mxPoint x="710" y="1430" as="sourcePoint" />
            <mxPoint x="810" y="1330" as="targetPoint" />
            <Array as="points">
              <mxPoint x="305" y="1250" />
            </Array>
          </mxGeometry>
        </mxCell>
        <mxCell id="VBvuwkP320cd5Lrn6C0n-103" value="" style="shape=flexArrow;endArrow=classic;html=1;fontSize=16;exitX=1;exitY=0.5;exitDx=0;exitDy=0;entryX=-0.005;entryY=0.056;entryDx=0;entryDy=0;entryPerimeter=0;fillColor=#d5e8d4;strokeColor=#82b366;" edge="1" parent="1" source="VBvuwkP320cd5Lrn6C0n-43" target="VBvuwkP320cd5Lrn6C0n-68">
          <mxGeometry width="50" height="50" relative="1" as="geometry">
            <mxPoint x="740" y="1220" as="sourcePoint" />
            <mxPoint x="790" y="1170" as="targetPoint" />
          </mxGeometry>
        </mxCell>
        <mxCell id="VBvuwkP320cd5Lrn6C0n-104" value="Matched Route&amp;nbsp;" style="edgeLabel;html=1;align=center;verticalAlign=middle;resizable=0;points=[];fontSize=16;" vertex="1" connectable="0" parent="VBvuwkP320cd5Lrn6C0n-103">
          <mxGeometry x="-0.1978" y="1" relative="1" as="geometry">
            <mxPoint as="offset" />
          </mxGeometry>
        </mxCell>
        <mxCell id="VBvuwkP320cd5Lrn6C0n-111" style="edgeStyle=orthogonalEdgeStyle;rounded=0;orthogonalLoop=1;jettySize=auto;html=1;exitX=0;exitY=0.5;exitDx=0;exitDy=0;entryX=0;entryY=0.5;entryDx=0;entryDy=0;fontSize=16;fillColor=#f8cecc;strokeColor=#b85450;strokeWidth=3;" edge="1" parent="1" source="VBvuwkP320cd5Lrn6C0n-95" target="VBvuwkP320cd5Lrn6C0n-73">
          <mxGeometry relative="1" as="geometry">
            <Array as="points">
              <mxPoint x="470" y="1130" />
              <mxPoint x="470" y="1610" />
            </Array>
          </mxGeometry>
        </mxCell>
        <mxCell id="VBvuwkP320cd5Lrn6C0n-112" style="edgeStyle=orthogonalEdgeStyle;rounded=0;orthogonalLoop=1;jettySize=auto;html=1;exitX=0;exitY=0.5;exitDx=0;exitDy=0;fontSize=16;fillColor=#f8cecc;strokeColor=#b85450;strokeWidth=3;" edge="1" parent="1" source="VBvuwkP320cd5Lrn6C0n-105" target="VBvuwkP320cd5Lrn6C0n-73">
          <mxGeometry relative="1" as="geometry">
            <Array as="points">
              <mxPoint x="470" y="1230" />
              <mxPoint x="470" y="1610" />
            </Array>
          </mxGeometry>
        </mxCell>
        <mxCell id="VBvuwkP320cd5Lrn6C0n-115" style="edgeStyle=orthogonalEdgeStyle;rounded=0;orthogonalLoop=1;jettySize=auto;html=1;exitX=1;exitY=0.5;exitDx=0;exitDy=0;fontSize=16;strokeWidth=5;entryX=0.5;entryY=1;entryDx=0;entryDy=0;fillColor=#f8cecc;strokeColor=#b85450;" edge="1" parent="1" source="VBvuwkP320cd5Lrn6C0n-73" target="VBvuwkP320cd5Lrn6C0n-33">
          <mxGeometry relative="1" as="geometry">
            <mxPoint x="2140" y="1020" as="targetPoint" />
            <Array as="points">
              <mxPoint x="1320" y="1695" />
              <mxPoint x="1320" y="1600" />
              <mxPoint x="1725" y="1600" />
            </Array>
          </mxGeometry>
        </mxCell>
        <mxCell id="VBvuwkP320cd5Lrn6C0n-73" value="Middlewares (&lt;br&gt;Async function ?)" style="ellipse;whiteSpace=wrap;html=1;rounded=1;glass=0;fontSize=16;" vertex="1" parent="1">
          <mxGeometry x="520" y="1620" width="180" height="150" as="geometry" />
        </mxCell>
        <mxCell id="VBvuwkP320cd5Lrn6C0n-117" style="edgeStyle=orthogonalEdgeStyle;rounded=0;orthogonalLoop=1;jettySize=auto;html=1;exitX=0;exitY=0.5;exitDx=0;exitDy=0;fontSize=16;strokeWidth=5;" edge="1" parent="1" source="VBvuwkP320cd5Lrn6C0n-74" target="VBvuwkP320cd5Lrn6C0n-97">
          <mxGeometry relative="1" as="geometry" />
        </mxCell>
        <mxCell id="VBvuwkP320cd5Lrn6C0n-119" value="{&lt;br&gt;urlPath,&lt;br&gt;headers,&lt;br&gt;method,&lt;br&gt;body,&lt;br&gt;params,&lt;br&gt;query&lt;br&gt;}" style="shape=note;whiteSpace=wrap;html=1;backgroundOutline=1;darkOpacity=0.05;rounded=1;glass=0;fontSize=16;fillColor=#e1d5e7;strokeColor=#9673a6;" vertex="1" parent="1">
          <mxGeometry x="100" y="450" width="100" height="140" as="geometry" />
        </mxCell>
        <mxCell id="VBvuwkP320cd5Lrn6C0n-121" value="" style="endArrow=none;dashed=1;html=1;dashPattern=1 3;strokeWidth=2;fontSize=16;exitX=1.003;exitY=0.461;exitDx=0;exitDy=0;exitPerimeter=0;" edge="1" parent="1" source="VBvuwkP320cd5Lrn6C0n-119">
          <mxGeometry width="50" height="50" relative="1" as="geometry">
            <mxPoint x="940" y="740" as="sourcePoint" />
            <mxPoint x="370" y="515" as="targetPoint" />
          </mxGeometry>
        </mxCell>
        <mxCell id="VBvuwkP320cd5Lrn6C0n-126" style="edgeStyle=orthogonalEdgeStyle;rounded=0;orthogonalLoop=1;jettySize=auto;html=1;exitX=1;exitY=0.5;exitDx=0;exitDy=0;fontSize=16;strokeWidth=1;entryX=0;entryY=0.5;entryDx=0;entryDy=0;" edge="1" parent="1" source="VBvuwkP320cd5Lrn6C0n-122" target="VBvuwkP320cd5Lrn6C0n-43">
          <mxGeometry relative="1" as="geometry">
            <mxPoint x="260" y="1010" as="targetPoint" />
          </mxGeometry>
        </mxCell>
        <mxCell id="VBvuwkP320cd5Lrn6C0n-122" value="/path?q" style="triangle;whiteSpace=wrap;html=1;rounded=1;glass=0;fontSize=16;fillColor=#dae8fc;strokeColor=#6c8ebf;" vertex="1" parent="1">
          <mxGeometry x="85" y="790" width="60" height="80" as="geometry" />
        </mxCell>
        <mxCell id="VBvuwkP320cd5Lrn6C0n-127" style="edgeStyle=orthogonalEdgeStyle;rounded=0;orthogonalLoop=1;jettySize=auto;html=1;exitX=1;exitY=0.5;exitDx=0;exitDy=0;fontSize=16;strokeWidth=1;" edge="1" parent="1" source="VBvuwkP320cd5Lrn6C0n-123" target="VBvuwkP320cd5Lrn6C0n-43">
          <mxGeometry relative="1" as="geometry">
            <Array as="points">
              <mxPoint x="180" y="1010" />
            </Array>
          </mxGeometry>
        </mxCell>
        <mxCell id="VBvuwkP320cd5Lrn6C0n-123" value="/path/:param" style="triangle;whiteSpace=wrap;html=1;rounded=1;glass=0;fontSize=16;fillColor=#dae8fc;strokeColor=#6c8ebf;" vertex="1" parent="1">
          <mxGeometry x="70" y="880" width="100" height="80" as="geometry" />
        </mxCell>
        <mxCell id="VBvuwkP320cd5Lrn6C0n-125" value="" style="endArrow=none;dashed=1;html=1;dashPattern=1 3;strokeWidth=2;fontSize=16;exitX=0;exitY=0.5;exitDx=0;exitDy=0;fillColor=#dae8fc;strokeColor=#6c8ebf;" edge="1" parent="1" source="VBvuwkP320cd5Lrn6C0n-123">
          <mxGeometry width="50" height="50" relative="1" as="geometry">
            <mxPoint x="95" y="840" as="sourcePoint" />
            <mxPoint x="30" y="840" as="targetPoint" />
            <Array as="points">
              <mxPoint x="30" y="840" />
              <mxPoint x="30" y="830" />
            </Array>
          </mxGeometry>
        </mxCell>
        <mxCell id="VBvuwkP320cd5Lrn6C0n-129" value="{&lt;br&gt;urlPath,&lt;br&gt;headers,&lt;br&gt;method,&lt;br&gt;body,&lt;br&gt;params,&lt;br&gt;query&lt;br&gt;}" style="shape=note;whiteSpace=wrap;html=1;backgroundOutline=1;darkOpacity=0.05;rounded=1;glass=0;fontSize=16;fillColor=#e1d5e7;strokeColor=#9673a6;" vertex="1" parent="1">
          <mxGeometry x="1210" y="1540" width="100" height="140" as="geometry" />
        </mxCell>
      </root>
    </mxGraphModel>
  </diagram>
</mxfile>
